<svg width="392.186" height="392.186" viewBox="0 0 392.186 392.186" xmlns="http://www.w3.org/2000/svg" xmlns:xlink="http://www.w3.org/1999/xlink" id="Capa_1" overflow="hidden"><g><g><g><path d="M368.62 17.951 23.568 17.951C10.57 17.951 0 28.524 0 41.52L0 350.666C0 363.662 10.57 374.234 23.568 374.234L368.621 374.234C381.615 374.234 392.185 363.662 392.185 350.666L392.185 41.52C392.188 28.525 381.614 17.951 368.62 17.951ZM297.56 57.528C297.56 52.722 301.456 48.825 306.261 48.825L314.964 48.825C319.772 48.825 323.665 52.721 323.665 57.528L323.665 67.391C323.665 72.197 319.769 76.093 314.964 76.093L306.261 76.093C301.456 76.093 297.56 72.197 297.56 67.391L297.56 57.528ZM257.093 57.528C257.093 52.722 260.991 48.825 265.796 48.825L274.497 48.825C279.302 48.825 283.2 52.721 283.2 57.528L283.2 67.391C283.2 72.197 279.302 76.093 274.497 76.093L265.796 76.093C260.991 76.093 257.093 72.197 257.093 67.391L257.093 57.528ZM363.903 345.951 28.282 345.951 28.282 102.235 363.903 102.235 363.903 345.951 363.903 345.951ZM364.132 67.391C364.132 72.197 360.236 76.093 355.431 76.093L346.728 76.093C341.919 76.093 338.026 72.197 338.026 67.391L338.026 57.528C338.026 52.722 341.922 48.825 346.728 48.825L355.431 48.825C360.237 48.825 364.132 52.721 364.132 57.528L364.132 67.391Z"/><path d="M84.185 233.284 147.269 262.62C148.9 263.375 150.636 263.758 152.431 263.758 154.769 263.758 157.048 263.094 159.029 261.834 162.576 259.567 164.695 255.704 164.695 251.5L164.695 251.178C164.695 246.426 161.91 242.062 157.599 240.06L118.144 221.728 157.599 203.394C161.91 201.39 164.695 197.027 164.695 192.277L164.695 191.958C164.695 187.748 162.576 183.883 159.029 181.624 157.068 180.371 154.783 179.708 152.424 179.708 150.645 179.708 148.861 180.099 147.264 180.841L84.184 210.174C79.877 212.178 77.094 216.543 77.094 221.291L77.094 222.168C77.093 226.909 79.874 231.272 84.185 233.284Z"/><path d="M165.257 293.036C167.558 296.185 171.259 298.066 175.157 298.066L175.473 298.066C180.825 298.066 185.514 294.64 187.145 289.549L228.7 160.788C229.892 157.072 229.231 152.97 226.929 149.815 224.628 146.665 220.927 144.785 217.028 144.785L216.713 144.785C211.359 144.785 206.665 148.21 205.034 153.301L163.475 282.072C162.292 285.793 162.958 289.889 165.257 293.036Z"/><path d="M227.49 192.276C227.49 197.021 230.273 201.385 234.585 203.399L274.04 221.728 234.585 240.058C230.275 242.062 227.49 246.426 227.49 251.176L227.49 251.498C227.49 255.703 229.607 259.566 233.158 261.834 235.132 263.092 237.412 263.758 239.753 263.758 241.546 263.758 243.281 263.375 244.923 262.616L308.003 233.281C312.31 231.272 315.093 226.909 315.093 222.166L315.093 221.289C315.093 216.541 312.31 212.176 307.999 210.172L244.919 180.839C243.328 180.099 241.546 179.708 239.767 179.708 237.412 179.708 235.124 180.369 233.163 181.62 229.612 183.883 227.493 187.747 227.493 191.957L227.493 192.275 227.49 192.275 227.49 192.276Z"/></g></g></g><g></g><g></g><g></g><g></g><g></g><g></g><g></g><g></g><g></g><g></g><g></g><g></g><g></g><g></g><g></g></svg>